<?xml version="1.0" encoding="UTF-8"?>
<!-- Generated by jsxcad -->
<!DOCTYPE svg PUBLIC "-//W3C//DTD SVG 1.1 Tiny//EN" "http://www.w3.org/Graphics/SVG/1.1/DTD/svg11-tiny.dtd">
<svg baseProfile="tiny" height="22.000000000000014mm" width="21.98869675641515mm" viewBox="0 0 21.98869675641515 22.000000000000014" version="1.1" stroke="black" stroke-width=".1" fill="none" xmlns="http://www.w3.org/2000/svg">
<path fill="#ffc0cb" stroke="#ffc0cb" d="M15.76706901148993 1.0893422330614666 L15.76706901148993 1.0893422330614666 L15.122290854515965 0.8039180696335478 L15.122290854515965 0.8039180696335478 z"/>
<path fill="#ffc0cb" stroke="#ffc0cb" d="M11.358190003599923 1.2882399919144412 L11.358190003599923 1.2882399919144412 L11.560208108949949 1.378184247367954 L11.684102054371643 1.4333453858057421 L12.022970328569944 1.5842192620198232 L12.022970328569944 1.5842192620198232 L11.684102054371643 1.4333453858057421 L11.560208108949949 1.378184247367954 z"/>
<path fill="#ffc0cb" stroke="#ffc0cb" d="M12.73476294706887 2.8170790424392775 L12.73476294706887 2.8170790424392775 L12.627270067923591 2.486249977930287 L12.50989256412813 2.1249991668642667 L12.50989256412813 2.1249991668642667 L12.627270067923591 2.486249977930287 z"/>
<path fill="#ffc0cb" stroke="#ffc0cb" d="M12.509891565575392 2.124998590349584 L12.509891565575392 2.124998590349584 L12.227063821931326 1.810886558717576 L12.20886986455205 1.7906801219578814 L12.022971289953913 1.5842188385202798 L12.022971289953913 1.5842188385202798 L12.20886986455205 1.7906801219578814 L12.227063821931326 1.810886558717576 z"/>
<path fill="#ffc0cb" stroke="#ffc0cb" d="M13.784550698512426 0.3597569396170903 L13.784550698512426 0.3597569396170903 L13.09709032079586 0.2028485945014962 L13.09709032079586 0.2028485945014962 z"/>
<path fill="#ffc0cb" stroke="#ffc0cb" d="M9.965720789175547 1.5842217725173047 L9.965720789175547 1.5842217725173047 L10.288108085667949 1.4406857003398175 L10.428491354448573 1.3781830421413044 L10.630501114145567 1.288242502411917 L10.630501114145567 1.288242502411917 L10.428491354448573 1.3781830421413044 L10.288108085667949 1.4406857003398175 z"/>
<path fill="#ffc0cb" stroke="#ffc0cb" d="M11.699119979044035 0.022600653484129787 L11.699119979044035 0.022600653484129787 L10.994349998333927 5.195430639115516e-8 L10.994349998333927 5.195430639115516e-8 z"/>
<path fill="#ffc0cb" stroke="#ffc0cb" d="M9.587699965845946 0.09030978874510578 L9.587699965845946 0.09030978874510578 L8.891599973670695 0.20284983714393984 L8.891599973670695 0.20284983714393984 z"/>
<path fill="#ffc0cb" stroke="#ffc0cb" d="M9.478802165751022 2.1250019500509802 L9.478802165751022 2.1250019500509802 L9.761629909395092 1.8108899184189748 L9.965722441372508 1.5842221982216804 L9.965722441372508 1.5842221982216804 L9.761629909395092 1.8108899184189748 z"/>
<path fill="#ffc0cb" stroke="#ffc0cb" d="M7.528158716340776 0.5603865118832093 L7.528158716340776 0.5603865118832093 L6.866408754310737 0.8039166150598573 L6.866408754310737 0.8039166150598573 z"/>
<path fill="#ffc0cb" stroke="#ffc0cb" d="M6.221630417185587 1.0893407996666655 L6.221630417185587 1.0893407996666655 L5.596460740562901 1.4154914195204331 L5.596460740562901 1.4154914195204331 z"/>
<path fill="#ffc0cb" stroke="#ffc0cb" d="M0.9358107139364178 6.547380289040822 L0.9358107139364178 6.547380289040822 L0.6711978671638786 7.2009791365103535 L0.6711978671638786 7.2009791365103535 z"/>
<path fill="#ffc0cb" stroke="#ffc0cb" d="M4.993461574969747 1.7810325980773336 L4.993461574969747 1.7810325980773336 L5.596460624703152 1.41549103051319 L5.596460624703152 1.41549103051319 z"/>
<path fill="#ffc0cb" stroke="#ffc0cb" d="M7.85356848085248 8.36456848085248 L7.85356848085248 8.36456848085248 L8.358918480852479 7.85921848085248 L8.358918480852479 7.85921848085248 z"/>
<path fill="#ffc0cb" stroke="#ffc0cb" d="M1.5877792179770054 5.297679559572854 L1.5877792179770054 5.297679559572854 L1.2417564594251669 5.912078005985402 L1.2417564594251669 5.912078005985402 z"/>
<path fill="#ffc0cb" stroke="#ffc0cb" d="M9.32999950744297 3.5407800517698296 L9.32999950744297 3.5407800517698296 L9.253935615376472 2.8170804608425026 L9.253935615376472 2.8170804608425026 z"/>
<path fill="#ffc0cb" stroke="#ffc0cb" d="M7.443642833468447 8.950001984015964 L7.443642833468447 8.950001984015964 L7.853567800285047 8.364568459743008 L7.853567800285047 8.364568459743008 z"/>
<path fill="#ffc0cb" stroke="#ffc0cb" d="M0.13534892735415704 9.244399861697634 L0.13534892735415704 9.244399861697634 L0.045177749625714976 9.943749709846365 L0.045177749625714976 9.943749709846365 z"/>
<path fill="#ffc0cb" stroke="#ffc0cb" d="M2.394202374900515 4.141611772434318 L2.394202374900515 4.141611772434318 L1.9724507345165603 4.706720548183955 L1.9724507345165603 4.706720548183955 z"/>
<path fill="#ffc0cb" stroke="#ffc0cb" d="M1.6922700306226316e-7 11.352569989135265 L1.6922700306226316e-7 11.352569989135265 L0.04517793338181148 12.056250132681289 L0.04517793338181148 12.056250132681289 z"/>
<path fill="#ffc0cb" stroke="#ffc0cb" d="M8.944347513992675 7.449296449613596 L8.944347513992675 7.449296449613596 L8.652670584318507 7.653530834493311 L8.358918688182822 7.859218126530913 L8.358918688182822 7.859218126530913 L8.652670584318507 7.653530834493311 z"/>
<path fill="#ffc0cb" stroke="#ffc0cb" d="M1.6938443232664495 12.17097750396095 L1.6938443232664495 12.17097750396095 L1.5833698427593736 11.979630090782917 L1.4982327897383467 11.832168389343813 L1.3299997185339734 11.540780162504484 L1.3299997185339734 11.540780162504484 L1.4982327897383467 11.832168389343813 L1.5833698427593736 11.979630090782917 z"/>
<path fill="#ffc0cb" stroke="#ffc0cb" d="M2.9943499298943372 12.750000329821209 L2.9943499298943372 12.750000329821209 L2.9743194230862953 12.745742714165583 L2.2825590421979394 12.59870450610441 L2.2825590421979394 12.59870450610441 L2.9743194230862953 12.745742714165583 z"/>
<path fill="#ffc0cb" stroke="#ffc0cb" d="M9.965722441372508 17.584222198221678 L9.965722441372508 17.584222198221678 L9.697037155729461 17.8826274390073 L9.478802165751022 18.12500195005098 L9.478802165751022 18.12500195005098 L9.697037155729461 17.8826274390073 z"/>
<path fill="#ffc0cb" stroke="#ffc0cb" d="M0.9358108754072695 15.452619578426077 L0.9358108754072695 15.452619578426077 L1.2417562933738975 16.087921785017052 L1.2417562933738975 16.087921785017052 z"/>
<path fill="#ffc0cb" stroke="#ffc0cb" d="M4.658697284412232 11.540779714580223 L4.658697284412232 11.540779714580223 L4.679638241671815 11.34153981519226 L4.703761727245211 11.112020181540785 L4.7271841789899876 10.889170439229545 L4.734761176478732 10.817080123652897 L4.734761176478732 10.817080123652897 L4.7271841789899876 10.889170439229545 L4.703761727245211 11.112020181540785 L4.679638241671815 11.34153981519226 z"/>
<path fill="#ffc0cb" stroke="#ffc0cb" d="M1.9724507345165536 17.293279451816048 L1.9724507345165536 17.293279451816048 L2.3942023749005066 17.858388227565687 L2.3942023749005066 17.858388227565687 z"/>
<path fill="#ffc0cb" stroke="#ffc0cb" d="M4.658697848777389 11.540778757991045 L4.658697848777389 11.540778757991045 L4.488891983023868 11.834891144899363 L4.327639035385371 12.114189443079484 L4.294850744044912 12.170980429574529 L4.294850744044912 12.170980429574529 L4.327639035385371 12.114189443079484 L4.488891983023868 11.834891144899363 z"/>
<path fill="#ffc0cb" stroke="#ffc0cb" d="M7.443643468492533 13.04999838261537 L7.443643468492533 13.04999838261537 L7.141607886020833 12.402280985764673 L7.141607886020833 12.402280985764673 z"/>
<path fill="#ffc0cb" stroke="#ffc0cb" d="M3.863840629719653 19.37590921035653 L3.863840629719653 19.37590921035653 L4.415131066215848 19.815548663007615 L4.415131066215848 19.815548663007615 z"/>
<path fill="#ffc0cb" stroke="#ffc0cb" d="M2.851290315275745 18.395309694672463 L2.851290315275745 18.395309694672463 L3.341838741132924 18.901841219144774 L3.341838741132924 18.901841219144774 z"/>
<path fill="#ffc0cb" stroke="#ffc0cb" d="M9.693844323266449 4.170977503960952 L9.693844323266449 4.170977503960952 L9.329999718533971 3.5407801625044866 L9.329999718533971 3.5407801625044866 z"/>
<path fill="#ffc0cb" stroke="#ffc0cb" d="M8.891599973670692 21.797150162856074 L8.891599973670692 21.797150162856074 L9.587699965845944 21.909690211254908 L9.587699965845944 21.909690211254908 z"/>
<path fill="#ffc0cb" stroke="#ffc0cb" d="M9.693844323266456 20.170977503960945 L9.693844323266456 20.170977503960945 L9.349069628077473 19.57381021472957 L9.329999718533973 19.540780162504486 L9.329999718533973 19.540780162504486 L9.349069628077473 19.57381021472957 z"/>
<path fill="#ffc0cb" stroke="#ffc0cb" d="M6.221630457050131 20.91065896751579 L6.221630457050131 20.91065896751579 L6.866408614024093 21.196083130943713 L6.866408614024093 21.196083130943713 z"/>
<path fill="#ffc0cb" stroke="#ffc0cb" d="M10.28255904219794 20.598704506104408 L10.28255904219794 20.598704506104408 L10.28814941005468 20.59989277547451 L10.427698948778506 20.62955494560828 L10.994349929894337 20.75000032982121 L10.994349929894337 20.75000032982121 L10.427698948778506 20.62955494560828 L10.28814941005468 20.59989277547451 z"/>
<path fill="#ffc0cb" stroke="#ffc0cb" d="M4.993461858498191 20.218967335703084 L4.993461858498191 20.218967335703084 L4.415130907124799 19.815548699568385 L4.415130907124799 19.815548699568385 z"/>
<path fill="#ffc0cb" stroke="#ffc0cb" d="M12.294849945535205 20.170979925035642 L12.294849945535205 20.170979925035642 L12.229991632883712 20.218102247471617 L11.706141301581084 20.598701791472674 L11.706141301581084 20.598701791472674 L12.229991632883712 20.218102247471617 z"/>
<path fill="#ffc0cb" stroke="#ffc0cb" d="M11.699119942388169 21.977399402793107 L11.699119942388169 21.977399402793107 L12.400999988317297 21.90968987889658 L12.400999988317297 21.90968987889658 z"/>
<path fill="#ffc0cb" stroke="#ffc0cb" d="M9.592069345755686 14.852741403031455 L9.592069345755686 14.852741403031455 L8.944348118682777 14.550704034497803 L8.944348118682777 14.550704034497803 z"/>
<path fill="#ffc0cb" stroke="#ffc0cb" d="M15.767068888876457 20.910657870184192 L15.767068888876457 20.910657870184192 L16.392238565499145 20.58450725033043 L16.392238565499145 20.58450725033043 z"/>
<path fill="#ffc0cb" stroke="#ffc0cb" d="M11.358190003599923 17.288239991914438 L11.358190003599923 17.288239991914438 L11.70381837221006 17.442123656076063 L11.96093941277388 17.556601318931456 L12.022970328569944 17.584219262019822 L12.022970328569944 17.584219262019822 L11.96093941277388 17.556601318931456 L11.70381837221006 17.442123656076063 z"/>
<path fill="#ffc0cb" stroke="#ffc0cb" d="M12.734761176478731 18.817080123652897 L12.734761176478731 18.817080123652897 L12.65869728441223 19.540779714580225 L12.65869728441223 19.540779714580225 z"/>
<path fill="#ffc0cb" stroke="#ffc0cb" d="M16.995230352994536 20.218970506044215 L16.995230352994536 20.218970506044215 L17.57356130436793 19.81555186990952 L17.57356130436793 19.81555186990952 z"/>
<path fill="#ffc0cb" stroke="#ffc0cb" d="M13.044351301992872 14.550702792132729 L13.044351301992872 14.550702792132729 L12.396630074919962 14.852740160666379 L12.396630074919962 14.852740160666379 z"/>
<path fill="#ffc0cb" stroke="#ffc0cb" d="M13.629780244710435 14.14078034948272 L13.629780244710435 14.14078034948272 L13.04435141890058 14.550702026400039 L13.04435141890058 14.550702026400039 z"/>
<path fill="#ffc0cb" stroke="#ffc0cb" d="M12.509891565575396 18.12499859034958 L12.509891565575396 18.12499859034958 L12.291661052954641 17.88262905191538 L12.022971289953912 17.58421883852028 L12.022971289953912 17.58421883852028 L12.291661052954641 17.88262905191538 z"/>
<path fill="#ffc0cb" stroke="#ffc0cb" d="M18.12485810974184 19.37590791861569 L18.12485810974184 19.37590791861569 L18.64685980754166 18.901839788081976 L18.64685980754166 18.901839788081976 z"/>
<path fill="#ffc0cb" stroke="#ffc0cb" d="M14.1351298973551 13.635429897355099 L14.1351298973551 13.635429897355099 L13.6297798973551 14.140779897355099 L13.6297798973551 14.140779897355099 z"/>
<path fill="#ffc0cb" stroke="#ffc0cb" d="M19.13740801095082 18.395308073713288 L19.13740801095082 18.395308073713288 L18.64685958509364 18.9018395981856 L18.64685958509364 18.9018395981856 z"/>
<path fill="#ffc0cb" stroke="#ffc0cb" d="M18.994349929894337 12.75000032982121 L18.994349929894337 12.75000032982121 L18.28255904219794 12.59870450610441 L18.28255904219794 12.59870450610441 z"/>
<path fill="#ffc0cb" stroke="#ffc0cb" d="M21.052886499257625 15.452618582706487 L21.052886499257625 15.452618582706487 L21.317499346030164 14.799019735236957 L21.317499346030164 14.799019735236957 z"/>
<path fill="#ffc0cb" stroke="#ffc0cb" d="M21.53969532143561 14.129801766838352 L21.53969532143561 14.129801766838352 L21.317499603149365 14.799019868236511 L21.317499603149365 14.799019868236511 z"/>
<path fill="#ffc0cb" stroke="#ffc0cb" d="M21.98869675641514 11.35257 L21.98869675641514 11.35257 L21.98869675641514 10.64743 L21.98869675641514 10.64743 z"/>
<path fill="#ffc0cb" stroke="#ffc0cb" d="M11.706140817590738 4.598703846462006 L11.706140817590738 4.598703846462006 L11.650289045026199 4.6105755072015 L11.219579093158782 4.702125733647498 L10.99434992989434 4.749999670178803 L10.99434992989434 4.749999670178803 L11.219579093158782 4.702125733647498 L11.650289045026199 4.6105755072015 z"/>
<path fill="#ffc0cb" stroke="#ffc0cb" d="M10.994349929894337 4.750000329821211 L10.994349929894337 4.750000329821211 L10.769120766629895 4.702126393289905 L10.284840134497205 4.599189367240395 L10.282559042197938 4.598704506104411 L10.282559042197938 4.598704506104411 L10.284840134497205 4.599189367240395 L10.769120766629895 4.702126393289905 z"/>
<path fill="#ffc0cb" stroke="#ffc0cb" d="M20.509892564128133 10.124999166864264 L20.509892564128133 10.124999166864264 L20.522217321667537 10.162930870242969 L20.70103691900005 10.713281001077565 L20.73476294706887 10.817079042439278 L20.73476294706887 10.817079042439278 L20.70103691900005 10.713281001077565 L20.522217321667537 10.162930870242969 z"/>
<path fill="#ffc0cb" stroke="#ffc0cb" d="M20.40091833748399 5.297681082177995 L20.40091833748399 5.297681082177995 L20.016243723851442 4.706717576041329 L20.016243723851442 4.706717576041329 z"/>
<path fill="#ffc0cb" stroke="#ffc0cb" d="M14.847089449718663 12.402279743399598 L14.847089449718663 12.402279743399598 L14.54505208118501 13.050000970472508 L14.54505208118501 13.050000970472508 z"/>
<path fill="#ffc0cb" stroke="#ffc0cb" d="M17.25393561537647 10.817080460842503 L17.25393561537647 10.817080460842503 L17.261512503603218 10.889169736860698 L17.28493506460999 11.112020518730391 L17.309058550183387 11.341540152381866 L17.32999950744297 11.54078005176983 L17.32999950744297 11.54078005176983 L17.309058550183387 11.341540152381866 L17.28493506460999 11.112020518730391 L17.261512503603218 10.889169736860698 z"/>
<path fill="#ffc0cb" stroke="#ffc0cb" d="M10.994349987680664 6.900000140810661 L10.994349987680664 6.900000140810661 L11.625329675382092 6.95520371039966 L11.706310124091386 6.9622885816289655 L11.706310124091386 6.9622885816289655 L11.625329675382092 6.95520371039966 z"/>
<path fill="#ffc0cb" stroke="#ffc0cb" d="M20.746941078057265 5.912079392849458 L20.746941078057265 5.912079392849458 L20.400918319505426 5.297680946436911 L20.400918319505426 5.297680946436911 z"/>
<path fill="#ffc0cb" stroke="#ffc0cb" d="M21.853347852356663 9.244400418253502 L21.853347852356663 9.244400418253502 L21.718555631174414 8.552270850828705 L21.718555631174414 8.552270850828705 z"/>
<path fill="#ffc0cb" stroke="#ffc0cb" d="M12.396630001004754 7.147259996250203 L12.396630001004754 7.147259996250203 L11.706310172634517 6.962289355719207 L11.706310172634517 6.962289355719207 z"/>
<path fill="#ffc0cb" stroke="#ffc0cb" d="M19.594491964500307 4.141608533855316 L19.594491964500307 4.141608533855316 L20.01624360488426 4.706717309604953 L20.01624360488426 4.706717309604953 z"/>
<path fill="#ffc0cb" stroke="#ffc0cb" d="M12.294849945535207 4.1709799250356445 L12.294849945535207 4.1709799250356445 L12.27812889512574 4.183128479271044 L11.964200557485375 4.411210767312792 L11.908180991366326 4.451911364498689 L11.706141301581084 4.598701791472675 L11.706141301581084 4.598701791472675 L11.908180991366326 4.451911364498689 L11.964200557485375 4.411210767312792 L12.27812889512574 4.183128479271044 z"/>
<path fill="#ffc0cb" stroke="#ffc0cb" d="M19.137407779196618 3.6046918905974814 L19.137407779196618 3.6046918905974814 L19.594491640761134 4.141608603199681 L19.594491640761134 4.141608603199681 z"/>
<path fill="#ffc0cb" stroke="#ffc0cb" d="M14.135130023236847 8.364569983729384 L14.135130023236847 8.364569983729384 L14.545051700154165 8.949998809539235 L14.545051700154165 8.949998809539235 z"/>
<path fill="#ffc0cb" stroke="#ffc0cb" d="M13.629779897355093 7.859220102644906 L13.629779897355093 7.859220102644906 L14.135129897355093 8.364570102644906 L14.135129897355093 8.364570102644906 z"/>
<path fill="#ffc0cb" stroke="#ffc0cb" d="M18.646859807541652 3.098160211918028 L18.646859807541652 3.098160211918028 L18.124858109741833 2.6240920813843154 L18.124858109741833 2.6240920813843154 z"/>
<path fill="#ffc0cb" stroke="#ffc0cb" d="M13.044351418900575 7.44929797359997 L13.044351418900575 7.44929797359997 L13.629780244710428 7.859219650517288 L13.629780244710428 7.859219650517288 z"/>
<path fill="#ffc0cb" stroke="#ffc0cb" d="M12.658697848777388 3.540778757991046 L12.658697848777388 3.540778757991046 L12.294850744044911 4.17098042957453 L12.294850744044911 4.17098042957453 z"/>
<path fill="#ffc0cb" stroke="#ffc0cb" d="M17.573561560269813 2.184448043483538 L17.573561560269813 2.184448043483538 L18.12485810937068 2.6240923707741795 L18.12485810937068 2.6240923707741795 z"/>
<path fill="#ffc0cb" stroke="#ffc0cb" d="M16.99523024068747 1.78102960296084 L16.99523024068747 1.78102960296084 L16.392238503645515 1.4154924683932313 L16.392238503645515 1.4154924683932313 z"/>
<path fill="#ffc0cb" stroke="#ffc0cb" d="M16.392238565499138 1.4154927496695833 L16.392238565499138 1.4154927496695833 L15.767068888876452 1.0893421298158177 L15.767068888876452 1.0893421298158177 z"/>
<path fill="#ffc0cb" stroke="#ffc0cb" d="M9.478803547106782 2.125001152524858 L9.478803547106782 2.125001152524858 L9.361426998226348 2.4862490246646165 L9.25393411908107 2.817078089173607 L9.25393411908107 2.817078089173607 L9.361426998226348 2.4862490246646165 z"/>
<path fill="#ffc0cb" stroke="#ffc0cb" d="M1.478803547106785 10.125001152524858 L1.478803547106785 10.125001152524858 L1.466479744482408 10.1629299169773 L1.2876601471498892 10.713280047811896 L1.2539341190810707 10.817078089173608 L1.2539341190810707 10.817078089173608 L1.2876601471498892 10.713280047811896 L1.466479744482408 10.1629299169773 z"/>
<path fill="#ffc0cb" stroke="#ffc0cb" d="M10.289580017623818 0.022600549575533053 L10.289580017623818 0.022600549575533053 L10.994349998333927 -5.1954292194903555e-8 L10.994349998333927 -5.1954292194903555e-8 z"/>
<path fill="#ffc0cb" stroke="#ffc0cb" d="M1.6922700317585176e-7 10.647430010864733 L1.6922700317585176e-7 10.647430010864733 L0.045177933381814514 9.94374986731871 L0.045177933381814514 9.94374986731871 z"/>
<path fill="#ffc0cb" stroke="#ffc0cb" d="M3.3418387411329316 3.09815878085523 L3.3418387411329316 3.09815878085523 L2.851290315275753 3.6046903053275403 L2.851290315275753 3.6046903053275403 z"/>
<path fill="#ffc0cb" stroke="#ffc0cb" d="M4.415131066215855 2.184451336992393 L4.415131066215855 2.184451336992393 L3.8638406297196592 2.624090789643476 L3.8638406297196592 2.624090789643476 z"/>
<path fill="#ffc0cb" stroke="#ffc0cb" d="M4.415130907124805 2.184451300431622 L4.415130907124805 2.184451300431622 L4.993461858498198 1.781032664296924 L4.993461858498198 1.781032664296924 z"/>
<path fill="#ffc0cb" stroke="#ffc0cb" d="M6.221630457050136 1.0893410324842179 L6.221630457050136 1.0893410324842179 L6.8664086140241 0.8039168690562991 L6.8664086140241 0.8039168690562991 z"/>
<path fill="#ffc0cb" stroke="#ffc0cb" d="M8.204148881567711 0.3597562316304973 L8.204148881567711 0.3597562316304973 L7.528158958939858 0.5603864923229328 L7.528158958939858 0.5603864923229328 z"/>
<path fill="#ffc0cb" stroke="#ffc0cb" d="M8.20414914087963 0.359756235947729 L8.20414914087963 0.359756235947729 L8.891600013751859 0.20285006025083027 L8.891600013751859 0.20285006025083027 z"/>
<path fill="#ffc0cb" stroke="#ffc0cb" d="M10.289580027704613 0.022600287187287862 L10.289580027704613 0.022600287187287862 L9.587699981775481 0.09030981108381562 L9.587699981775481 0.09030981108381562 z"/>
<path fill="#ffc0cb" stroke="#ffc0cb" d="M11.358189999999999 1.2882416987158505 L11.358189999999999 1.2882416987158505 L10.994349999999999 1.288241698715849 L10.630499999999998 1.288241698715847 L10.630499999999998 1.288241698715847 L10.994349999999999 1.288241698715849 z"/>
<path fill="#ffc0cb" stroke="#ffc0cb" d="M12.400999988317297 0.0903101211034311 L12.400999988317297 0.0903101211034311 L11.699119942388167 0.022600597206905312 L11.699119942388167 0.022600597206905312 z"/>
<path fill="#ffc0cb" stroke="#ffc0cb" d="M12.400999951533048 0.09031029978522831 L12.400999951533048 0.09031029978522831 L13.097090198429566 0.2028487726429688 L13.097090198429566 0.2028487726429688 z"/>
<path fill="#ffc0cb" stroke="#ffc0cb" d="M14.460540778472655 0.5603873770673016 L14.460540778472655 0.5603873770673016 L13.7845508558448 0.3597571163748695 L13.7845508558448 0.3597571163748695 z"/>
<path fill="#ffc0cb" stroke="#ffc0cb" d="M14.460540896774084 0.5603875631751108 L14.460540896774084 0.5603875631751108 L15.122290858804124 0.8039176663517572 L15.122290858804124 0.8039176663517572 z"/>
<path fill="#ffc0cb" stroke="#ffc0cb" d="M12.734761176478731 2.817080123652897 L12.734761176478731 2.817080123652897 L12.658697284412233 3.540779714580224 L12.658697284412233 3.540779714580224 z"/>
<path fill="#ffc0cb" stroke="#ffc0cb" d="M16.99523035299453 1.781029493955793 L16.99523035299453 1.781029493955793 L17.573561304367924 2.184448130090491 L17.573561304367924 2.184448130090491 z"/>
<path fill="#ffc0cb" stroke="#ffc0cb" d="M13.044351301992867 7.449297207867282 L13.044351301992867 7.449297207867282 L12.396630074919956 7.147259839333631 L12.396630074919956 7.147259839333631 z"/>
<path fill="#ffc0cb" stroke="#ffc0cb" d="M17.965720789175545 9.5842217725173 L17.965720789175545 9.5842217725173 L18.27675932879253 9.445738492443343 L18.630501114145567 9.288242502411915 L18.630501114145567 9.288242502411915 L18.27675932879253 9.445738492443343 z"/>
<path fill="#ffc0cb" stroke="#ffc0cb" d="M17.478803547106782 10.125001152524858 L17.478803547106782 10.125001152524858 L17.46521228903186 10.166830743751536 L17.305283443471616 10.65904111885175 L17.253934119081066 10.817078089173608 L17.253934119081066 10.817078089173608 L17.305283443471616 10.65904111885175 L17.46521228903186 10.166830743751536 z"/>
<path fill="#ffc0cb" stroke="#ffc0cb" d="M19.358189999999997 9.288241698715847 L19.358189999999997 9.288241698715847 L18.883459999999996 9.288241698715847 L18.630499999999998 9.288241698715845 L18.630499999999998 9.288241698715845 L18.883459999999996 9.288241698715847 z"/>
<path fill="#ffc0cb" stroke="#ffc0cb" d="M21.943519059830376 9.943750121221449 L21.943519059830376 9.943750121221449 L21.853347882101932 9.244400273072715 L21.853347882101932 9.244400273072715 z"/>
<path fill="#ffc0cb" stroke="#ffc0cb" d="M17.693842388748816 12.170976712169315 L17.693842388748816 12.170976712169315 L18.19061023382726 12.531899678164384 L18.282557577787905 12.59870333388893 L18.282557577787905 12.59870333388893 L18.19061023382726 12.531899678164384 z"/>
<path fill="#ffc0cb" stroke="#ffc0cb" d="M19.706141301581084 12.598701791472674 L19.706141301581084 12.598701791472674 L19.901271185794858 12.456931632106606 L20.294849945535205 12.170979925035642 L20.294849945535205 12.170979925035642 L19.901271185794858 12.456931632106606 z"/>
<path fill="#ffc0cb" stroke="#ffc0cb" d="M10.282557577787907 4.59870333388893 L10.282557577787907 4.59870333388893 L10.024498321883618 4.411212309729046 L9.710563439158284 4.183125266404715 L9.693842388748816 4.170976712169316 L9.693842388748816 4.170976712169316 L9.710563439158284 4.183125266404715 L10.024498321883618 4.411212309729046 z"/>
<path fill="#ffc0cb" stroke="#ffc0cb" d="M20.658697848777386 11.540778757991045 L20.658697848777386 11.540778757991045 L20.490462277573013 11.832171314957392 L20.405327724551984 11.979628686269477 L20.294850744044908 12.170980429574529 L20.294850744044908 12.170980429574529 L20.405327724551984 11.979628686269477 L20.490462277573013 11.832171314957392 z"/>
<path fill="#ffc0cb" stroke="#ffc0cb" d="M20.400918319505433 16.70231905356309 L20.400918319505433 16.70231905356309 L20.74694107805727 16.087920607150544 L20.74694107805727 16.087920607150544 z"/>
<path fill="#ffc0cb" stroke="#ffc0cb" d="M9.592069781716258 7.147259185353991 L9.592069781716258 7.147259185353991 L10.282389610086495 6.962288544822995 L10.282389610086495 6.962288544822995 z"/>
<path fill="#ffc0cb" stroke="#ffc0cb" d="M19.594491640761138 17.85839139680032 L19.594491640761138 17.85839139680032 L19.137407779196625 18.39530810940252 L19.137407779196625 18.39530810940252 z"/>
<path fill="#ffc0cb" stroke="#ffc0cb" d="M18.124858109370688 19.37590762922583 L18.124858109370688 19.37590762922583 L17.57356156026982 19.815551956516472 L17.57356156026982 19.815551956516472 z"/>
<path fill="#ffc0cb" stroke="#ffc0cb" d="M15.12229085451597 21.19608193036646 L15.12229085451597 21.19608193036646 L15.767069011489935 20.91065776693854 L15.767069011489935 20.91065776693854 z"/>
<path fill="#ffc0cb" stroke="#ffc0cb" d="M12.294850744044911 20.170980429574527 L12.294850744044911 20.170980429574527 L12.639627939233886 19.57380881021613 L12.658697848777386 19.540778757991045 L12.658697848777386 19.540778757991045 L12.639627939233886 19.57380881021613 z"/>
<path fill="#ffc0cb" stroke="#ffc0cb" d="M13.097090320795864 21.797151405498518 L13.097090320795864 21.797151405498518 L13.78455069851243 21.64024306038292 L13.78455069851243 21.64024306038292 z"/>
<path fill="#ffc0cb" stroke="#ffc0cb" d="M10.289580027704611 21.977399712812726 L10.289580027704611 21.977399712812726 L9.587699981775481 21.909690188916194 L9.587699981775481 21.909690188916194 z"/>
<path fill="#ffc0cb" stroke="#ffc0cb" d="M7.528158716340771 21.4396134881168 L7.528158716340771 21.4396134881168 L6.866408754310733 21.196083384940152 L6.866408754310733 21.196083384940152 z"/>
<path fill="#ffc0cb" stroke="#ffc0cb" d="M8.204148881567708 21.640243768369515 L8.204148881567708 21.640243768369515 L7.528158958939854 21.439613507677077 L7.528158958939854 21.439613507677077 z"/>
<path fill="#ffc0cb" stroke="#ffc0cb" d="M9.25393411908107 18.817078089173606 L9.25393411908107 18.817078089173606 L9.47880354710678 18.125001152524856 L9.47880354710678 18.125001152524856 z"/>
<path fill="#ffc0cb" stroke="#ffc0cb" d="M8.358918480852472 14.140781519147525 L8.358918480852472 14.140781519147525 L7.853568480852473 13.635431519147525 L7.853568480852473 13.635431519147525 z"/>
<path fill="#ffc0cb" stroke="#ffc0cb" d="M3.34183872639533 18.901841402380285 L3.34183872639533 18.901841402380285 L3.8638404241951476 19.375909532913997 L3.8638404241951476 19.375909532913997 z"/>
<path fill="#ffc0cb" stroke="#ffc0cb" d="M3.7061413015810873 12.598701791472674 L3.7061413015810873 12.598701791472674 L3.7980886455417333 12.53189813574813 L4.294849945535206 12.170979925035642 L4.294849945535206 12.170979925035642 L3.7980886455417333 12.53189813574813 z"/>
<path fill="#ffc0cb" stroke="#ffc0cb" d="M2.851290340173045 18.395309710406462 L2.851290340173045 18.395309710406462 L2.394202276608007 17.858388061895344 L2.394202276608007 17.858388061895344 z"/>
<path fill="#ffc0cb" stroke="#ffc0cb" d="M4.509892564128129 10.124999166864267 L4.509892564128129 10.124999166864267 L4.523484777118076 10.166831697017207 L4.683412667763295 10.65903913319116 L4.73476294706887 10.817079042439277 L4.73476294706887 10.817079042439277 L4.683412667763295 10.65903913319116 L4.523484777118076 10.166831697017207 z"/>
<path fill="#ffc0cb" stroke="#ffc0cb" d="M0.27014119060993147 13.447729687785309 L0.27014119060993147 13.447729687785309 L0.4490010192478384 14.12979973272174 L0.4490010192478384 14.12979973272174 z"/>
<path fill="#ffc0cb" stroke="#ffc0cb" d="M0.13534892735415455 12.755600138302364 L0.13534892735415455 12.755600138302364 L0.04517774962571249 12.056250290153633 L0.04517774962571249 12.056250290153633 z"/>
<path fill="#ffc0cb" stroke="#ffc0cb" d="M1.2539356153764727 10.817080460842503 L1.2539356153764727 10.817080460842503 L1.303212607793895 11.285919725909817 L1.3299995074429727 11.54078005176983 L1.3299995074429727 11.54078005176983 L1.303212607793895 11.285919725909817 z"/>
<path fill="#ffc0cb" stroke="#ffc0cb" d="M3.3581900035999235 9.288239991914438 L3.3581900035999235 9.288239991914438 L3.7119401346059915 9.445739697669993 L4.022970328569944 9.584219262019822 L4.022970328569944 9.584219262019822 L3.7119401346059915 9.445739697669993 z"/>
<path fill="#ffc0cb" stroke="#ffc0cb" d="M0.27014124376657983 8.55227024222352 L0.27014124376657983 8.55227024222352 L0.13534902258433443 9.244399809648316 L0.13534902258433443 9.244399809648316 z"/>
<path fill="#ffc0cb" stroke="#ffc0cb" d="M0.44900076411353407 7.870200253703172 L0.44900076411353407 7.870200253703172 L0.6711974753316715 7.200979161752362 L0.6711974753316715 7.200979161752362 z"/>
<path fill="#ffc0cb" stroke="#ffc0cb" d="M2.6305 9.288241698715847 L2.6305 9.288241698715847 L3.10523 9.288241698715847 L3.35819 9.288241698715847 L3.35819 9.288241698715847 L3.10523 9.288241698715847 z"/>
<path fill="#ffc0cb" stroke="#ffc0cb" d="M1.9724510217982871 4.706720665116977 L1.9724510217982871 4.706720665116977 L1.587779384249021 5.297679599190529 L1.587779384249021 5.297679599190529 z"/>
<path fill="#ffc0cb" stroke="#ffc0cb" d="M2.8512903401730534 3.6046902895935427 L2.8512903401730534 3.6046902895935427 L2.3942022766080147 4.14161193810466 L2.3942022766080147 4.14161193810466 z"/>
<path fill="#ffc0cb" stroke="#ffc0cb" d="M3.8638404241951543 2.6240904670860083 L3.8638404241951543 2.6240904670860083 L3.3418387263953364 3.098158597619722 L3.3418387263953364 3.098158597619722 z"/>
<path fill="#ffc0cb" stroke="#ffc0cb" d="M9.592069345755691 7.147258596968555 L9.592069345755691 7.147258596968555 L8.94434811868278 7.449295965502206 L8.94434811868278 7.449295965502206 z"/>
<path fill="#ffc0cb" stroke="#ffc0cb" d="M10.994349987680664 6.899999859189357 L10.994349987680664 6.899999859189357 L10.282389851269942 6.962288300007666 L10.282389851269942 6.962288300007666 z"/>
<path fill="#ffc0cb" stroke="#ffc0cb" d="M18.646859585093633 3.098160401814406 L18.646859585093633 3.098160401814406 L19.137408010950814 3.6046919262867134 L19.137408010950814 3.6046919262867134 z"/>
<path fill="#ffc0cb" stroke="#ffc0cb" d="M14.847089449718657 9.597720256600404 L14.847089449718657 9.597720256600404 L14.545052081185005 8.949999029527492 L14.545052081185005 8.949999029527492 z"/>
<path fill="#ffc0cb" stroke="#ffc0cb" d="M21.539695321435605 7.8701982331616485 L21.539695321435605 7.8701982331616485 L21.317499603149358 7.200980131763489 L21.317499603149358 7.200980131763489 z"/>
<path fill="#ffc0cb" stroke="#ffc0cb" d="M21.05288649162926 6.547381689542301 L21.05288649162926 6.547381689542301 L20.74694107366263 5.912079482951326 L20.74694107366263 5.912079482951326 z"/>
<path fill="#ffc0cb" stroke="#ffc0cb" d="M21.05288649925762 6.547381417293513 L21.05288649925762 6.547381417293513 L21.31749934603016 7.200980264763044 L21.31749934603016 7.200980264763044 z"/>
<path fill="#ffc0cb" stroke="#ffc0cb" d="M20.022970328569944 9.584219262019822 L20.022970328569944 9.584219262019822 L19.92304930683351 9.539731556877424 L19.358190003599923 9.28823999191444 L19.358190003599923 9.28823999191444 L19.92304930683351 9.539731556877424 z"/>
<path fill="#ffc0cb" stroke="#ffc0cb" d="M21.539695302455176 7.870198609532508 L21.539695302455176 7.870198609532508 L21.718555774499563 8.5522711080567 L21.718555774499563 8.5522711080567 z"/>
<path fill="#ffc0cb" stroke="#ffc0cb" d="M20.509891565575394 10.12499859034958 L20.509891565575394 10.12499859034958 L20.41524130427898 10.01987882562193 L20.02297128995391 9.58421883852028 L20.02297128995391 9.58421883852028 L20.41524130427898 10.01987882562193 z"/>
<path fill="#ffc0cb" stroke="#ffc0cb" d="M21.943518836348225 9.943750074708921 L21.943518836348225 9.943750074708921 L21.988696600503037 10.647430218254945 L21.988696600503037 10.647430218254945 z"/>
<path fill="#ffc0cb" stroke="#ffc0cb" d="M20.65869728441223 11.540779714580223 L20.65869728441223 11.540779714580223 L20.685484074799312 11.285920428278665 L20.734761176478727 10.817080123652897 L20.734761176478727 10.817080123652897 L20.685484074799312 11.285920428278665 z"/>
<path fill="#ffc0cb" stroke="#ffc0cb" d="M21.943518836348225 12.056249925291077 L21.943518836348225 12.056249925291077 L21.988696600503037 11.352569781745053 L21.988696600503037 11.352569781745053 z"/>
<path fill="#ffc0cb" stroke="#ffc0cb" d="M21.853347882101936 12.755599726927283 L21.853347882101936 12.755599726927283 L21.943519059830376 12.05624987877855 L21.943519059830376 12.05624987877855 z"/>
<path fill="#ffc0cb" stroke="#ffc0cb" d="M21.718555631174418 13.447729149171293 L21.718555631174418 13.447729149171293 L21.853347852356666 12.755599581746496 L21.853347852356666 12.755599581746496 z"/>
<path fill="#ffc0cb" stroke="#ffc0cb" d="M14.545051700154172 13.050001190460767 L14.545051700154172 13.050001190460767 L14.258512418949435 13.45922169376663 L14.135130023236854 13.63543001627062 L14.135130023236854 13.63543001627062 L14.258512418949435 13.45922169376663 z"/>
<path fill="#ffc0cb" stroke="#ffc0cb" d="M21.718555774499567 13.4477288919433 L21.718555774499567 13.4477288919433 L21.53969530245518 14.12980139046749 L21.53969530245518 14.12980139046749 z"/>
<path fill="#ffc0cb" stroke="#ffc0cb" d="M19.70614081759074 12.598703846462003 L19.70614081759074 12.598703846462003 L19.01438043670238 12.745742054523177 L18.99434992989434 12.749999670178802 L18.99434992989434 12.749999670178802 L19.01438043670238 12.745742054523177 z"/>
<path fill="#ffc0cb" stroke="#ffc0cb" d="M20.746941073662637 16.087920517048673 L20.746941073662637 16.087920517048673 L21.052886491629266 15.4526183104577 L21.052886491629266 15.4526183104577 z"/>
<path fill="#ffc0cb" stroke="#ffc0cb" d="M20.016243604884266 17.29328269039505 L20.016243604884266 17.29328269039505 L19.594491964500314 17.85839146614469 L19.594491964500314 17.85839146614469 z"/>
<path fill="#ffc0cb" stroke="#ffc0cb" d="M20.01624372385145 17.293282423958672 L20.01624372385145 17.293282423958672 L20.400918337483997 16.70231891782201 L20.400918337483997 16.70231891782201 z"/>
<path fill="#ffc0cb" stroke="#ffc0cb" d="M17.693844323266447 12.170977503960952 L17.693844323266447 12.170977503960952 L17.66105853192599 12.114190847592925 L17.49980308428749 11.834888219285785 L17.32999971853397 11.540780162504486 L17.32999971853397 11.540780162504486 L17.49980308428749 11.834888219285785 L17.66105853192599 12.114190847592925 z"/>
<path fill="#ffc0cb" stroke="#ffc0cb" d="M15.032059536575973 11.711959875825904 L15.032059536575973 11.711959875825904 L14.847088896044978 12.402279704196141 L14.847088896044978 12.402279704196141 z"/>
<path fill="#ffc0cb" stroke="#ffc0cb" d="M15.094348390526909 10.99999985918935 L15.094348390526909 10.99999985918935 L15.0320599497086 11.711959995600072 L15.0320599497086 11.711959995600072 z"/>
<path fill="#ffc0cb" stroke="#ffc0cb" d="M15.032059949708598 10.288040004399926 L15.032059949708598 10.288040004399926 L15.094348390526909 11.000000140810648 L15.094348390526909 11.000000140810648 z"/>
<path fill="#ffc0cb" stroke="#ffc0cb" d="M15.03205953657597 10.288040124174094 L15.03205953657597 10.288040124174094 L14.847088896044975 9.597720295803857 L14.847088896044975 9.597720295803857 z"/>
<path fill="#ffc0cb" stroke="#ffc0cb" d="M17.47880216575102 10.12500195005098 L17.47880216575102 10.12500195005098 L17.699458308238174 9.879938476730812 L17.965722441372506 9.584222198221678 L17.965722441372506 9.584222198221678 L17.699458308238174 9.879938476730812 z"/>
<path fill="#ffc0cb" stroke="#ffc0cb" d="M11.35819 17.288241698715847 L11.35819 17.288241698715847 L11.21859 17.288241698715847 L10.99435 17.288241698715847 L10.7701 17.288241698715847 L10.6305 17.288241698715847 L10.6305 17.288241698715847 L10.7701 17.288241698715847 L10.99435 17.288241698715847 L11.21859 17.288241698715847 z"/>
<path fill="#ffc0cb" stroke="#ffc0cb" d="M12.50989256412813 18.124999166864264 L12.50989256412813 18.124999166864264 L12.73476294706887 18.81707904243928 L12.73476294706887 18.81707904243928 z"/>
<path fill="#ffc0cb" stroke="#ffc0cb" d="M10.994349998333927 21.999999948045705 L10.994349998333927 21.999999948045705 L11.699119979044037 21.97739934651588 L11.699119979044037 21.97739934651588 z"/>
<path fill="#ffc0cb" stroke="#ffc0cb" d="M16.995230240687476 20.218970397039165 L16.995230240687476 20.218970397039165 L16.392238503645522 20.58450753160678 L16.392238503645522 20.58450753160678 z"/>
<path fill="#ffc0cb" stroke="#ffc0cb" d="M14.46054089677409 21.4396124368249 L14.46054089677409 21.4396124368249 L15.122290858804128 21.196082333648253 L15.122290858804128 21.196082333648253 z"/>
<path fill="#ffc0cb" stroke="#ffc0cb" d="M14.460540778472659 21.439612622932707 L14.460540778472659 21.439612622932707 L13.784550855844806 21.64024288362514 L13.784550855844806 21.64024288362514 z"/>
<path fill="#ffc0cb" stroke="#ffc0cb" d="M13.097090198429568 21.797151227357045 L13.097090198429568 21.797151227357045 L12.40099995153305 21.909689700214784 L12.40099995153305 21.909689700214784 z"/>
<path fill="#ffc0cb" stroke="#ffc0cb" d="M10.994349929894337 20.74999967017879 L10.994349929894337 20.74999967017879 L11.561000911010169 20.629554285965874 L11.700550449733996 20.599892115832102 L11.706140817590736 20.598703846462 L11.706140817590736 20.598703846462 L11.700550449733996 20.599892115832102 L11.561000911010169 20.629554285965874 z"/>
<path fill="#ffc0cb" stroke="#ffc0cb" d="M9.693842388748816 20.170976712169313 L9.693842388748816 20.170976712169313 L9.75870070140031 20.21809903460529 L10.282557577787909 20.598703333888928 L10.282557577787909 20.598703333888928 L9.75870070140031 20.21809903460529 z"/>
<path fill="#ffc0cb" stroke="#ffc0cb" d="M10.994349998333927 22.000000051954306 L10.994349998333927 22.000000051954306 L10.289580017623818 21.97739945042448 L10.289580017623818 21.97739945042448 z"/>
<path fill="#ffc0cb" stroke="#ffc0cb" d="M8.204149140879629 21.640243764052283 L8.204149140879629 21.640243764052283 L8.891600013751855 21.797149939749183 L8.891600013751855 21.797149939749183 z"/>
<path fill="#ffc0cb" stroke="#ffc0cb" d="M8.358918688182815 14.140781873469095 L8.358918688182815 14.140781873469095 L8.442760849474197 14.199488786825116 L8.94434751399267 14.550703550386414 L8.94434751399267 14.550703550386414 L8.442760849474197 14.199488786825116 z"/>
<path fill="#ffc0cb" stroke="#ffc0cb" d="M9.253935615376472 18.8170804608425 L9.253935615376472 18.8170804608425 L9.32999950744297 19.54078005176983 L9.32999950744297 19.54078005176983 z"/>
<path fill="#ffc0cb" stroke="#ffc0cb" d="M5.596460740562897 20.584508580479575 L5.596460740562897 20.584508580479575 L6.221630417185581 20.910659200333342 L6.221630417185581 20.910659200333342 z"/>
<path fill="#ffc0cb" stroke="#ffc0cb" d="M5.5964606247031465 20.58450896948682 L5.5964606247031465 20.58450896948682 L4.99346157496974 20.218967401922676 L4.99346157496974 20.218967401922676 z"/>
<path fill="#ffc0cb" stroke="#ffc0cb" d="M9.965720789175547 17.5842217725173 L9.965720789175547 17.5842217725173 L10.027760050624641 17.556600113704807 L10.284881091188462 17.44212245084941 L10.630501114145567 17.28824250241191 L10.630501114145567 17.28824250241191 L10.284881091188462 17.44212245084941 L10.027760050624641 17.556600113704807 z"/>
<path fill="#ffc0cb" stroke="#ffc0cb" d="M10.282389610086492 15.037711455177018 L10.282389610086492 15.037711455177018 L9.592069781716255 14.85274081464602 L9.592069781716255 14.85274081464602 z"/>
<path fill="#ffc0cb" stroke="#ffc0cb" d="M10.994349987680664 15.100000140810655 L10.994349987680664 15.100000140810655 L10.28238985126994 15.037711699992347 L10.28238985126994 15.037711699992347 z"/>
<path fill="#ffc0cb" stroke="#ffc0cb" d="M11.706310124091386 15.037711418371048 L11.706310124091386 15.037711418371048 L10.994349987680664 15.099999859189356 L10.994349987680664 15.099999859189356 z"/>
<path fill="#ffc0cb" stroke="#ffc0cb" d="M11.70631017263452 15.037710644280805 L11.70631017263452 15.037710644280805 L12.396630001004757 14.852740003749808 L12.396630001004757 14.852740003749808 z"/>
<path fill="#ffc0cb" stroke="#ffc0cb" d="M6.956637437118163 10.288039313277881 L6.956637437118163 10.288039313277881 L7.141608077649159 9.597719484907644 L7.141608077649159 9.597719484907644 z"/>
<path fill="#ffc0cb" stroke="#ffc0cb" d="M4.509891565575397 10.12499859034958 L4.509891565575397 10.12499859034958 L4.289239900445926 9.87994008963889 L4.0229712899539125 9.584218838520279 L4.0229712899539125 9.584218838520279 L4.289239900445926 9.87994008963889 z"/>
<path fill="#ffc0cb" stroke="#ffc0cb" d="M7.105427357601002e-15 10.64743 L7.105427357601002e-15 10.64743 L7.105427357601002e-15 11.35257 L7.105427357601002e-15 11.35257 z"/>
<path fill="#ffc0cb" stroke="#ffc0cb" d="M1.9657224413725076 9.58422219822168 L1.9657224413725076 9.58422219822168 L1.573456904405122 10.019877212713853 L1.478802165751024 10.125001950050981 L1.478802165751024 10.125001950050981 L1.573456904405122 10.019877212713853 z"/>
<path fill="#ffc0cb" stroke="#ffc0cb" d="M0.44900101924784186 7.870200267278259 L0.44900101924784186 7.870200267278259 L0.27014119060993413 8.552270312214691 L0.27014119060993413 8.552270312214691 z"/>
<path fill="#ffc0cb" stroke="#ffc0cb" d="M2.630501114145569 9.288242502411919 L2.630501114145569 9.288242502411919 L2.0656501565650123 9.539730351650775 L1.9657207891755473 9.5842217725173 L1.9657207891755473 9.5842217725173 L2.0656501565650123 9.539730351650775 z"/>
<path fill="#ffc0cb" stroke="#ffc0cb" d="M1.2417562933739028 5.91207821498295 L1.2417562933739028 5.91207821498295 L0.9358108754072748 6.547380421573925 L0.9358108754072748 6.547380421573925 z"/>
<path fill="#ffc0cb" stroke="#ffc0cb" d="M7.1416078860208385 9.597719014235327 L7.1416078860208385 9.597719014235327 L7.443643468492539 8.95000161738463 L7.443643468492539 8.95000161738463 z"/>
<path fill="#ffc0cb" stroke="#ffc0cb" d="M6.89434839052691 10.99999985918935 L6.89434839052691 10.99999985918935 L6.956636831345219 10.288039722778628 L6.956636831345219 10.288039722778628 z"/>
<path fill="#ffc0cb" stroke="#ffc0cb" d="M1.5877793842490142 16.702320400809473 L1.5877793842490142 16.702320400809473 L1.9724510217982796 17.293279334883024 L1.9724510217982796 17.293279334883024 z"/>
<path fill="#ffc0cb" stroke="#ffc0cb" d="M6.956636831345218 11.71196027722137 L6.956636831345218 11.71196027722137 L6.894348390526909 11.000000140810648 L6.894348390526909 11.000000140810648 z"/>
<path fill="#ffc0cb" stroke="#ffc0cb" d="M6.956637437118159 11.711960686722119 L6.956637437118159 11.711960686722119 L7.141608077649155 12.402280515092354 L7.141608077649155 12.402280515092354 z"/>
<path fill="#ffc0cb" stroke="#ffc0cb" d="M7.85356780028504 13.635431540256995 L7.85356780028504 13.635431540256995 L7.44364283346844 13.04999801598404 L7.44364283346844 13.04999801598404 z"/>
<path fill="#ffc0cb" stroke="#ffc0cb" d="M3.706140817590738 12.598703846462003 L3.706140817590738 12.598703846462003 L2.9943499298943403 12.749999670178802 L2.9943499298943403 12.749999670178802 z"/>
<path fill="#ffc0cb" stroke="#ffc0cb" d="M1.5877792179769978 16.702320440427147 L1.5877792179769978 16.702320440427147 L1.241756459425162 16.0879219940146 L1.241756459425162 16.0879219940146 z"/>
<path fill="#ffc0cb" stroke="#ffc0cb" d="M0.6711978671638735 14.799020863489648 L0.6711978671638735 14.799020863489648 L0.9358107139364124 15.45261971095918 L0.9358107139364124 15.45261971095918 z"/>
<path fill="#ffc0cb" stroke="#ffc0cb" d="M0.6711974753316656 14.799020838247639 L0.6711974753316656 14.799020838247639 L0.4490007641135311 14.129799746296827 L0.4490007641135311 14.129799746296827 z"/>
<path fill="#ffc0cb" stroke="#ffc0cb" d="M1.6938423887488179 12.170976712169313 L1.6938423887488179 12.170976712169313 L2.0874276935741345 12.456933174522861 L2.282557577787908 12.59870333388893 L2.282557577787908 12.59870333388893 L2.0874276935741345 12.456933174522861 z"/>
<path fill="#ffc0cb" stroke="#ffc0cb" d="M0.13534902258433246 12.755600190351682 L0.13534902258433246 12.755600190351682 L0.2701412437665769 13.44772975777648 L0.2701412437665769 13.44772975777648 z"/>
<path fill="#ffc0cb" stroke="#ffc0cb" d="M10.28793 16.25271 L9.59411 16.11169 L8.92529 15.87944 L8.29338 15.56013 L7.70967 15.15944 L7.18458 14.68452 L6.72748 14.14385 L6.34651 13.54708 L6.04849 12.90486 L5.83873 12.22865 L5.72097 11.53051 L5.69731 10.8229 L5.76818 10.11845 L5.93231 9.42974 L6.18677 8.76905 L6.52702 8.14816 L6.94699 7.57817 L7.43919 7.06924 L7.99483 6.63046 L8.60399 6.26965 L9.25582 5.99325 L9.93866 5.8062 L10.64035 5.71184 L11.34835 5.71184 L12.05003 5.8062 L12.73288 5.99325 L13.3847 6.26965 L13.99387 6.63046 L14.54951 7.06924 L15.04171 7.57817 L15.46168 8.14816 L15.80193 8.76905 L16.05639 9.42974 L16.22052 10.11845 L16.29139 10.8229 L16.26773 11.53051 L16.14997 12.22865 L15.94021 12.90486 L15.64218 13.54708 L15.26122 14.14385 L14.80411 14.68452 L14.27902 15.15944 L13.69532 15.56013 L13.06341 15.87944 L12.39458 16.11169 L11.70077 16.25271 L10.99435 16.3 z"/>
<path fill="#ffc0cb" stroke="#ffc0cb" d="M11.700770104055676 16.252710511936517 L11.700770104055676 16.252710511936517 L12.39457950078494 16.11168754394548 L12.39457950078494 16.11168754394548 z"/>
<path fill="#ffc0cb" stroke="#ffc0cb" d="M10.99434999276477 16.29999989191812 L10.99434999276477 16.29999989191812 L11.700770042415732 16.252710633617966 L11.700770042415732 16.252710633617966 z"/>
<path fill="#ffc0cb" stroke="#ffc0cb" d="M13.06341152859505 15.879444402155706 L13.06341152859505 15.879444402155706 L12.394579386311579 16.11168823265686 L12.394579386311579 16.11168823265686 z"/>
<path fill="#ffc0cb" stroke="#ffc0cb" d="M13.695318649039367 15.56012732653934 L13.695318649039367 15.56012732653934 L13.063412083461321 15.879444123030494 L13.063412083461321 15.879444123030494 z"/>
<path fill="#ffc0cb" stroke="#ffc0cb" d="M10.287929943113804 16.25271084978174 L10.287929943113804 16.25271084978174 L10.994349992764768 16.300000108081893 L10.994349992764768 16.300000108081893 z"/>
<path fill="#ffc0cb" stroke="#ffc0cb" d="M14.804111689728133 14.684521868245312 L14.804111689728133 14.684521868245312 L14.279019634399768 15.159439595774668 L14.279019634399768 15.159439595774668 z"/>
<path fill="#ffc0cb" stroke="#ffc0cb" d="M14.279019373367076 15.15943908715456 L14.279019373367076 15.15943908715456 L13.69531814534532 15.56012729823792 L13.69531814534532 15.56012729823792 z"/>
<path fill="#ffc0cb" stroke="#ffc0cb" d="M15.261221106694164 14.14385093565183 L15.261221106694164 14.14385093565183 L14.804112210218518 14.684521868623753 L14.804112210218518 14.684521868623753 z"/>
<path fill="#ffc0cb" stroke="#ffc0cb" d="M15.64218362759923 13.54708231577296 L15.64218362759923 13.54708231577296 L15.261220958851958 14.143850612108254 L15.261220958851958 14.143850612108254 z"/>
<path fill="#ffc0cb" stroke="#ffc0cb" d="M15.940206850061651 12.904858538273803 L15.940206850061651 12.904858538273803 L15.642183727528373 13.547081729756352 L15.642183727528373 13.547081729756352 z"/>
<path fill="#ffc0cb" stroke="#ffc0cb" d="M16.149968451415607 12.228649519624604 L16.149968451415607 12.228649519624604 L15.940206339935607 12.904858864637347 L15.940206339935607 12.904858864637347 z"/>
<path fill="#ffc0cb" stroke="#ffc0cb" d="M16.267730311219164 11.53051005249614 L16.267730311219164 11.53051005249614 L16.14996879020698 12.22864979593331 L16.14996879020698 12.22864979593331 z"/>
<path fill="#ffc0cb" stroke="#ffc0cb" d="M16.291388688235248 10.822899956142919 L16.291388688235248 10.822899956142919 L16.26773070262717 11.530510023491388 L16.26773070262717 11.530510023491388 z"/>
<path fill="#ffc0cb" stroke="#ffc0cb" d="M16.220519688535138 10.11845007422584 L16.220519688535138 10.11845007422584 L16.05639165719732 9.429739605069843 L16.05639165719732 9.429739605069843 z"/>
<path fill="#ffc0cb" stroke="#ffc0cb" d="M15.801931957256121 8.769048927394197 L15.801931957256121 8.769048927394197 L15.461676526388052 8.14816190359161 L15.461676526388052 8.14816190359161 z"/>
<path fill="#ffc0cb" stroke="#ffc0cb" d="M15.801931614807668 8.769049378068487 L15.801931614807668 8.769049378068487 L16.05639159908392 9.429739384124376 L16.05639159908392 9.429739384124376 z"/>
<path fill="#ffc0cb" stroke="#ffc0cb" d="M16.220520276825628 10.118449972151083 L16.220520276825628 10.118449972151083 L16.291388617410853 10.82290013908975 L16.291388617410853 10.82290013908975 z"/>
<path fill="#ffc0cb" stroke="#ffc0cb" d="M15.041705632424573 7.578173218051976 L15.041705632424573 7.578173218051976 L15.461676640763788 8.14816247510247 L15.461676640763788 8.14816247510247 z"/>
<path fill="#ffc0cb" stroke="#ffc0cb" d="M14.549506762373607 7.069243131189751 L14.549506762373607 7.069243131189751 L15.041706234046638 7.578173642148024 L15.041706234046638 7.578173642148024 z"/>
<path fill="#ffc0cb" stroke="#ffc0cb" d="M13.384700245260278 6.269649421605915 L13.384700245260278 6.269649421605915 L12.732878648044904 5.993253188297895 L12.732878648044904 5.993253188297895 z"/>
<path fill="#ffc0cb" stroke="#ffc0cb" d="M13.993869593215146 6.630460686787479 L13.993869593215146 6.630460686787479 L13.384700447513486 6.269649244449104 L13.384700447513486 6.269649244449104 z"/>
<path fill="#ffc0cb" stroke="#ffc0cb" d="M13.993869354662172 6.630460817201808 L13.993869354662172 6.630460817201808 L14.549507152052907 7.069243606401817 L14.549507152052907 7.069243606401817 z"/>
<path fill="#ffc0cb" stroke="#ffc0cb" d="M12.050029531049912 5.806201711944645 L12.050029531049912 5.806201711944645 L12.732879036747214 5.993253516441287 L12.732879036747214 5.993253516441287 z"/>
<path fill="#ffc0cb" stroke="#ffc0cb" d="M11.34835057694272 5.71183571004574 L11.34835057694272 5.71183571004574 L12.050029681379083 5.806202369159196 L12.050029681379083 5.806202369159196 z"/>
<path fill="#ffc0cb" stroke="#ffc0cb" d="M10.64035 5.711835543297296 L10.64035 5.711835543297296 L11.34835 5.711835543297296 L11.34835 5.711835543297296 z"/>
<path fill="#ffc0cb" stroke="#ffc0cb" d="M9.938660438651416 5.806203261666105 L9.938660438651416 5.806203261666105 L10.640349365433655 5.711835281575639 L10.640349365433655 5.711835281575639 z"/>
<path fill="#ffc0cb" stroke="#ffc0cb" d="M9.255820736853122 5.993252689948875 L9.255820736853122 5.993252689948875 L9.93866094054253 5.8062034335354475 L9.93866094054253 5.8062034335354475 z"/>
<path fill="#ffc0cb" stroke="#ffc0cb" d="M8.60399078444297 6.269651849941528 L8.60399078444297 6.269651849941528 L9.255820857620481 5.993252022515088 L9.255820857620481 5.993252022515088 z"/>
<path fill="#ffc0cb" stroke="#ffc0cb" d="M7.9948295643962775 6.630459264556729 L7.9948295643962775 6.630459264556729 L8.60399130718916 6.269652206967994 L8.60399130718916 6.269652206967994 z"/>
<path fill="#ffc0cb" stroke="#ffc0cb" d="M7.439191602118829 7.069242028789184 L7.439191602118829 7.069242028789184 L7.994829399509565 6.630459239589175 L7.994829399509565 6.630459239589175 z"/>
<path fill="#ffc0cb" stroke="#ffc0cb" d="M6.94699208996878 7.578172021261266 L6.94699208996878 7.578172021261266 L7.43919156164181 7.069241510302993 L7.43919156164181 7.069241510302993 z"/>
<path fill="#ffc0cb" stroke="#ffc0cb" d="M5.932305576317887 9.429738296250783 L5.932305576317887 9.429738296250783 L6.1867655605941385 8.769048290194894 L6.1867655605941385 8.769048290194894 z"/>
<path fill="#ffc0cb" stroke="#ffc0cb" d="M6.527020979161636 8.14816053659531 L6.527020979161636 8.14816053659531 L6.186765548293567 8.769047560397894 L6.186765548293567 8.769047560397894 z"/>
<path fill="#ffc0cb" stroke="#ffc0cb" d="M6.527021256946291 8.148160926124476 L6.527021256946291 8.148160926124476 L6.946992265285506 7.57817166907398 L6.946992265285506 7.57817166907398 z"/>
<path fill="#ffc0cb" stroke="#ffc0cb" d="M5.768177242192146 10.118449342781044 L5.768177242192146 10.118449342781044 L5.932305273529965 9.429738873625048 L5.932305273529965 9.429738873625048 z"/>
<path fill="#ffc0cb" stroke="#ffc0cb" d="M5.697308171502248 10.822899816051429 L5.697308171502248 10.822899816051429 L5.768176512087474 10.118449649112762 L5.768176512087474 10.118449649112762 z"/>
<path fill="#ffc0cb" stroke="#ffc0cb" d="M5.720966057409637 11.530510131815175 L5.720966057409637 11.530510131815175 L5.697308071801556 10.822900064466706 L5.697308071801556 10.822900064466706 z"/>
<path fill="#ffc0cb" stroke="#ffc0cb" d="M5.838728055943416 12.22865032792154 L5.838728055943416 12.22865032792154 L5.720966534931231 11.53051058448437 L5.720966534931231 11.53051058448437 z"/>
<path fill="#ffc0cb" stroke="#ffc0cb" d="M6.727477001761721 14.143852534853101 L6.727477001761721 14.143852534853101 L7.184581729884141 14.684518537473751 L7.184581729884141 14.684518537473751 z"/>
<path fill="#ffc0cb" stroke="#ffc0cb" d="M6.048490701198888 12.904859782486058 L6.048490701198888 12.904859782486058 L5.838728589718886 12.228650437473314 L5.838728589718886 12.228650437473314 z"/>
<path fill="#ffc0cb" stroke="#ffc0cb" d="M6.346511831744099 13.547079149980716 L6.346511831744099 13.547079149980716 L6.048490481071562 12.904859776759151 L6.048490481071562 12.904859776759151 z"/>
<path fill="#ffc0cb" stroke="#ffc0cb" d="M6.346511172613345 13.547079251431564 L6.346511172613345 13.547079251431564 L6.727476736686806 14.143852083221429 L6.727476736686806 14.143852083221429 z"/>
<path fill="#ffc0cb" stroke="#ffc0cb" d="M7.709673405663781 15.159436234533075 L7.709673405663781 15.159436234533075 L7.1845813503354155 14.684518507003721 L7.1845813503354155 14.684518507003721 z"/>
<path fill="#ffc0cb" stroke="#ffc0cb" d="M8.293380815747058 15.560128811663166 L8.293380815747058 15.560128811663166 L7.709672790686436 15.15943593467675 L7.709672790686436 15.15943593467675 z"/>
<path fill="#ffc0cb" stroke="#ffc0cb" d="M8.925287256760669 15.879445428687008 L8.925287256760669 15.879445428687008 L8.293380691182623 15.560128632195854 L8.293380691182623 15.560128632195854 z"/>
<path fill="#ffc0cb" stroke="#ffc0cb" d="M9.594111340680765 16.11168613901309 L9.594111340680765 16.11168613901309 L8.92528812239422 15.87944540726138 L8.92528812239422 15.87944540726138 z"/>
<path fill="#ffc0cb" stroke="#ffc0cb" d="M9.594110767276211 16.11168622512947 L9.594110767276211 16.11168622512947 L10.287929767254909 16.252711145066883 L10.287929767254909 16.252711145066883 z"/>
<path fill="#ffc0cb" stroke="#ffc0cb" d="M9.59411 16.11169 L10.28793 16.25271 L10.99435 16.3 L11.70077 16.25271 L12.39458 16.11169 L13.06341 15.87944 L13.69532 15.56013 L14.27902 15.15944 L14.80411 14.68452 L15.26122 14.14385 L15.64218 13.54708 L15.94021 12.90486 L16.14997 12.22865 L16.26773 11.53051 L16.29139 10.8229 L16.22052 10.11845 L16.05639 9.42974 L15.80193 8.76905 L15.46168 8.14816 L15.04171 7.57817 L14.54951 7.06924 L13.99387 6.63046 L13.3847 6.26965 L12.73288 5.99325 L12.05003 5.8062 L11.34835 5.71184 L10.64035 5.71184 L9.93866 5.8062 L9.25582 5.99325 L8.60399 6.26965 L7.99483 6.63046 L7.43919 7.06924 L6.94699 7.57817 L6.52702 8.14816 L6.18677 8.76905 L5.93231 9.42974 L5.76818 10.11845 L5.69731 10.8229 L5.72097 11.53051 L5.83873 12.22865 L6.04849 12.90486 L6.34651 13.54708 L6.72748 14.14385 L7.18458 14.68452 L7.70967 15.15944 L8.29338 15.56013 L8.92529 15.87944 z"/>
<path fill="#ffc0cb" stroke="#ffc0cb" d="M7.99483 6.63046 L8.60399 6.26965 L9.25582 5.99325 L9.93866 5.8062 L10.64035 5.71184 L11.34835 5.71184 L12.05003 5.8062 L12.73288 5.99325 L13.3847 6.26965 L13.99387 6.63046 L14.54951 7.06924 L15.04171 7.57817 L15.46168 8.14816 L15.80193 8.76905 L16.05639 9.42974 L16.22052 10.11845 L16.29139 10.8229 L16.26773 11.53051 L16.14997 12.22865 L15.94021 12.90486 L15.64218 13.54708 L15.26122 14.14385 L14.80411 14.68452 L14.27902 15.15944 L13.69532 15.56013 L13.06341 15.87944 L12.39458 16.11169 L11.70077 16.25271 L10.99435 16.3 L10.28793 16.25271 L9.59411 16.11169 L8.92529 15.87944 L8.29338 15.56013 L7.70967 15.15944 L7.18458 14.68452 L6.72748 14.14385 L6.34651 13.54708 L6.04849 12.90486 L5.83873 12.22865 L5.72097 11.53051 L5.69731 10.8229 L5.76818 10.11845 L5.93231 9.42974 L6.18677 8.76905 L6.52702 8.14816 L6.94699 7.57817 L7.43919 7.06924 M6.95664 11.71196 L7.14161 12.40228 L7.44364 13.05 L7.85357 13.63543 L8.35892 14.14078 L8.39964 14.16929 L8.94435 14.5507 L8.97438 14.56471 L9.59207 14.85274 L10.28239 15.03771 L10.99435 15.1 L11.70631 15.03771 L12.39663 14.85274 L13.04435 14.5507 L13.45247 14.26493 L13.62978 14.14078 L14.13513 13.63543 L14.54505 13.05 L14.84709 12.40228 L15.03206 11.71196 L15.06432 11.34322 L15.09435 11 L15.07885 10.8229 L15.03206 10.28804 L14.84709 9.59772 L14.54505 8.95 L14.13513 8.36457 L13.62978 7.85922 L13.04435 7.4493 L12.39663 7.14726 L11.70631 6.96229 L11.36477 6.93241 L10.99435 6.9 L10.92679 6.90591 L10.28239 6.96229 L9.59207 7.14726 L8.94435 7.4493 L8.35892 7.85922 L7.85357 8.36457 L7.75137 8.51053 L7.44364 8.95 L7.14161 9.59772 L7.06487 9.88413 L6.95664 10.28804 L6.90984 10.8229 L6.89435 11 z"/>
<path fill="#ffc0cb" stroke="#ffc0cb" d="M9.255820857620481 5.993252022515088 L9.255820857620481 5.993252022515088 L8.60399078444297 6.269651849941528 L8.60399078444297 6.269651849941528 z"/>
<path fill="#ffc0cb" stroke="#ffc0cb" d="M6.1867655605941385 8.769048290194894 L6.1867655605941385 8.769048290194894 L5.932305576317887 9.429738296250783 L5.932305576317887 9.429738296250783 z"/>
<path fill="#ffc0cb" stroke="#ffc0cb" d="M8.358918688182822 7.859218126530913 L8.358918688182822 7.859218126530913 L8.944347513992675 7.449296449613596 L8.944347513992675 7.449296449613596 z"/>
<path fill="#ffc0cb" stroke="#ffc0cb" d="M7.853567800285048 8.364568459743008 L7.853567800285048 8.364568459743008 L7.751366262144034 8.510527382725074 L7.443642833468447 8.950001984015964 L7.443642833468447 8.950001984015964 L7.751366262144034 8.510527382725074 z"/>
<path fill="#ffc0cb" stroke="#ffc0cb" d="M6.89434839052691 10.99999985918935 L6.89434839052691 10.99999985918935 L6.9098426006122375 10.822900227524089 L6.956636831345219 10.288039722778628 L6.956636831345219 10.288039722778628 L6.9098426006122375 10.822900227524089 z"/>
<path fill="#ffc0cb" stroke="#ffc0cb" d="M7.43919156164181 7.069241510302993 L7.43919156164181 7.069241510302993 L6.94699208996878 7.578172021261266 L6.94699208996878 7.578172021261266 z"/>
<path fill="#ffc0cb" stroke="#ffc0cb" d="M5.838728589718886 12.228650437473314 L5.838728589718886 12.228650437473314 L6.048490701198888 12.904859782486058 L6.048490701198888 12.904859782486058 z"/>
<path fill="#ffc0cb" stroke="#ffc0cb" d="M7.141608077649155 12.402280515092354 L7.141608077649155 12.402280515092354 L6.956637437118159 11.711960686722119 L6.956637437118159 11.711960686722119 z"/>
<path fill="#ffc0cb" stroke="#ffc0cb" d="M7.443643468492533 13.04999838261537 L7.443643468492533 13.04999838261537 L7.141607886020833 12.402280985764673 L7.141607886020833 12.402280985764673 z"/>
<path fill="#ffc0cb" stroke="#ffc0cb" d="M9.59206934575569 14.852741403031448 L9.59206934575569 14.852741403031448 L8.974380715966268 14.564708464605381 L8.944348118682777 14.550704034497803 L8.944348118682777 14.550704034497803 L8.974380715966268 14.564708464605381 z"/>
<path fill="#ffc0cb" stroke="#ffc0cb" d="M8.358918688182815 14.140781873469095 L8.358918688182815 14.140781873469095 L8.399637536610228 14.169293518085189 L8.94434751399267 14.55070355038641 L8.94434751399267 14.55070355038641 L8.399637536610228 14.169293518085189 z"/>
<path fill="#ffc0cb" stroke="#ffc0cb" d="M6.346511172613345 13.547079251431564 L6.346511172613345 13.547079251431564 L6.727476736686806 14.143852083221429 L6.727476736686806 14.143852083221429 z"/>
<path fill="#ffc0cb" stroke="#ffc0cb" d="M10.287929943113804 16.25271084978174 L10.287929943113804 16.25271084978174 L10.994349992764768 16.300000108081893 L10.994349992764768 16.300000108081893 z"/>
<path fill="#ffc0cb" stroke="#ffc0cb" d="M8.92528812239422 15.87944540726138 L8.92528812239422 15.87944540726138 L9.594111340680765 16.11168613901309 L9.594111340680765 16.11168613901309 z"/>
<path fill="#ffc0cb" stroke="#ffc0cb" d="M10.994349987680664 15.100000140810655 L10.994349987680664 15.100000140810655 L10.28238985126994 15.037711699992347 L10.28238985126994 15.037711699992347 z"/>
<path fill="#ffc0cb" stroke="#ffc0cb" d="M11.700770042415732 16.252710633617966 L11.700770042415732 16.252710633617966 L10.99434999276477 16.29999989191812 L10.99434999276477 16.29999989191812 z"/>
<path fill="#ffc0cb" stroke="#ffc0cb" d="M12.39457950078494 16.11168754394548 L12.39457950078494 16.11168754394548 L11.700770104055676 16.252710511936517 L11.700770104055676 16.252710511936517 z"/>
<path fill="#ffc0cb" stroke="#ffc0cb" d="M13.044351301992872 14.550702792132729 L13.044351301992872 14.550702792132729 L12.396630074919962 14.852740160666379 L12.396630074919962 14.852740160666379 z"/>
<path fill="#ffc0cb" stroke="#ffc0cb" d="M13.629780244710435 14.14078034948272 L13.629780244710435 14.14078034948272 L13.452472029468613 14.264932898381554 L13.04435141890058 14.550702026400039 L13.04435141890058 14.550702026400039 L13.452472029468613 14.264932898381554 z"/>
<path fill="#ffc0cb" stroke="#ffc0cb" d="M15.940206339935607 12.904858864637347 L15.940206339935607 12.904858864637347 L16.149968451415607 12.228649519624604 L16.149968451415607 12.228649519624604 z"/>
<path fill="#ffc0cb" stroke="#ffc0cb" d="M14.1351298973551 13.635429897355099 L14.1351298973551 13.635429897355099 L13.6297798973551 14.140779897355099 L13.6297798973551 14.140779897355099 z"/>
<path fill="#ffc0cb" stroke="#ffc0cb" d="M15.261220958851958 14.143850612108254 L15.261220958851958 14.143850612108254 L15.64218362759923 13.54708231577296 L15.64218362759923 13.54708231577296 z"/>
<path fill="#ffc0cb" stroke="#ffc0cb" d="M13.69531814534532 15.56012729823792 L13.69531814534532 15.56012729823792 L14.279019373367076 15.15943908715456 L14.279019373367076 15.15943908715456 z"/>
<path fill="#ffc0cb" stroke="#ffc0cb" d="M8.293380691182623 15.560128632195854 L8.293380691182623 15.560128632195854 L8.925287256760669 15.879445428687008 L8.925287256760669 15.879445428687008 z"/>
<path fill="#ffc0cb" stroke="#ffc0cb" d="M15.094348390526907 11.000000140810648 L15.094348390526907 11.000000140810648 L15.078854104480346 10.822899640904499 L15.032059949708598 10.288040004399926 L15.032059949708598 10.288040004399926 L15.078854104480346 10.822899640904499 z"/>
<path fill="#ffc0cb" stroke="#ffc0cb" d="M16.26773070262717 11.530510023491388 L16.26773070262717 11.530510023491388 L16.291388688235248 10.822899956142919 L16.291388688235248 10.822899956142919 z"/>
<path fill="#ffc0cb" stroke="#ffc0cb" d="M16.220520276825628 10.118449972151083 L16.220520276825628 10.118449972151083 L16.291388617410853 10.82290013908975 L16.291388617410853 10.82290013908975 z"/>
<path fill="#ffc0cb" stroke="#ffc0cb" d="M16.05639159908392 9.429739384124376 L16.05639159908392 9.429739384124376 L15.801931614807668 8.769049378068487 L15.801931614807668 8.769049378068487 z"/>
<path fill="#ffc0cb" stroke="#ffc0cb" d="M14.847088896044975 9.597720295803857 L14.847088896044975 9.597720295803857 L15.03205953657597 10.288040124174094 L15.03205953657597 10.288040124174094 z"/>
<path fill="#ffc0cb" stroke="#ffc0cb" d="M14.549507152052907 7.069243606401817 L14.549507152052907 7.069243606401817 L13.993869354662172 6.630460817201808 L13.993869354662172 6.630460817201808 z"/>
<path fill="#ffc0cb" stroke="#ffc0cb" d="M15.461676640763788 8.14816247510247 L15.461676640763788 8.14816247510247 L15.041705632424573 7.578173218051976 L15.041705632424573 7.578173218051976 z"/>
<path fill="#ffc0cb" stroke="#ffc0cb" d="M15.041706234046638 7.578173642148024 L15.041706234046638 7.578173642148024 L14.549506762373607 7.069243131189751 L14.549506762373607 7.069243131189751 z"/>
<path fill="#ffc0cb" stroke="#ffc0cb" d="M14.135130023236847 8.364569983729384 L14.135130023236847 8.364569983729384 L14.545051700154165 8.949998809539235 L14.545051700154165 8.949998809539235 z"/>
<path fill="#ffc0cb" stroke="#ffc0cb" d="M10.282389851269942 6.962288300007674 L10.282389851269942 6.962288300007674 L10.926790051418907 6.905910587720796 L10.994349987680664 6.899999859189357 L10.994349987680664 6.899999859189357 L10.926790051418907 6.905910587720796 z"/>
<path fill="#ffc0cb" stroke="#ffc0cb" d="M13.384700245260278 6.269649421605915 L13.384700245260278 6.269649421605915 L12.732878648044904 5.993253188297895 L12.732878648044904 5.993253188297895 z"/>
<path fill="#ffc0cb" stroke="#ffc0cb" d="M11.706310124091386 6.9622885816289655 L11.706310124091386 6.9622885816289655 L11.364770200335146 6.932407710158786 L10.994349987680664 6.900000140810658 L10.994349987680664 6.900000140810658 L11.364770200335146 6.932407710158786 z"/>
<path fill="#ffc0cb" stroke="#ffc0cb" d="M12.050029681379083 5.806202369159196 L12.050029681379083 5.806202369159196 L11.34835057694272 5.71183571004574 L11.34835057694272 5.71183571004574 z"/>
<path fill="#ffc0cb" stroke="#ffc0cb" d="M10.640349365433655 5.711835281575639 L10.640349365433655 5.711835281575639 L9.938660438651416 5.806203261666105 L9.938660438651416 5.806203261666105 z"/>
<path fill="#ffc0cb" stroke="#ffc0cb" d="M9.592069781716258 7.147259185353991 L9.592069781716258 7.147259185353991 L10.282389610086495 6.962288544822995 L10.282389610086495 6.962288544822995 z"/>
<path fill="#ffc0cb" stroke="#ffc0cb" d="M9.93866094054253 5.8062034335354475 L9.93866094054253 5.8062034335354475 L9.255820736853122 5.993252689948875 L9.255820736853122 5.993252689948875 z"/>
<path fill="#ffc0cb" stroke="#ffc0cb" d="M6.894348390526909 11.000000140810648 L6.894348390526909 11.000000140810648 L6.956636831345218 11.71196027722137 L6.956636831345218 11.71196027722137 z"/>
<path fill="#ffc0cb" stroke="#ffc0cb" d="M10.64035 5.711835543297296 L10.64035 5.711835543297296 L11.34835 5.711835543297296 L11.34835 5.711835543297296 z"/>
<path fill="#ffc0cb" stroke="#ffc0cb" d="M7.14160807764916 9.597719484907644 L7.14160807764916 9.597719484907644 L7.064864972392368 9.884128652856596 L6.956637437118163 10.288039313277881 L6.956637437118163 10.288039313277881 L7.064864972392368 9.884128652856596 z"/>
<path fill="#ffc0cb" stroke="#ffc0cb" d="M12.396630001004754 7.147259996250203 L12.396630001004754 7.147259996250203 L11.706310172634517 6.962289355719207 L11.706310172634517 6.962289355719207 z"/>
<path fill="#ffc0cb" stroke="#ffc0cb" d="M12.050029531049912 5.806201711944645 L12.050029531049912 5.806201711944645 L12.732879036747214 5.993253516441287 L12.732879036747214 5.993253516441287 z"/>
<path fill="#ffc0cb" stroke="#ffc0cb" d="M13.044351301992867 7.449297207867282 L13.044351301992867 7.449297207867282 L12.396630074919956 7.147259839333631 L12.396630074919956 7.147259839333631 z"/>
<path fill="#ffc0cb" stroke="#ffc0cb" d="M13.384700447513486 6.269649244449104 L13.384700447513486 6.269649244449104 L13.993869593215146 6.630460686787479 L13.993869593215146 6.630460686787479 z"/>
<path fill="#ffc0cb" stroke="#ffc0cb" d="M13.629780244710428 7.859219650517288 L13.629780244710428 7.859219650517288 L13.044351418900575 7.44929797359997 L13.044351418900575 7.44929797359997 z"/>
<path fill="#ffc0cb" stroke="#ffc0cb" d="M13.629779897355093 7.859220102644906 L13.629779897355093 7.859220102644906 L14.135129897355093 8.364570102644906 L14.135129897355093 8.364570102644906 z"/>
<path fill="#ffc0cb" stroke="#ffc0cb" d="M15.461676526388052 8.14816190359161 L15.461676526388052 8.14816190359161 L15.801931957256121 8.769048927394197 L15.801931957256121 8.769048927394197 z"/>
<path fill="#ffc0cb" stroke="#ffc0cb" d="M14.545052081185005 8.949999029527492 L14.545052081185005 8.949999029527492 L14.847089449718657 9.597720256600404 L14.847089449718657 9.597720256600404 z"/>
<path fill="#ffc0cb" stroke="#ffc0cb" d="M16.05639165719732 9.429739605069843 L16.05639165719732 9.429739605069843 L16.220519688535138 10.11845007422584 L16.220519688535138 10.11845007422584 z"/>
<path fill="#ffc0cb" stroke="#ffc0cb" d="M15.0320599497086 11.711959995600072 L15.0320599497086 11.711959995600072 L15.064320515168966 11.343220045071444 L15.094348390526909 10.99999985918935 L15.094348390526909 10.99999985918935 L15.064320515168966 11.343220045071444 z"/>
<path fill="#ffc0cb" stroke="#ffc0cb" d="M14.847088896044978 12.402279704196141 L14.847088896044978 12.402279704196141 L15.032059536575973 11.711959875825904 L15.032059536575973 11.711959875825904 z"/>
<path fill="#ffc0cb" stroke="#ffc0cb" d="M16.267730311219164 11.53051005249614 L16.267730311219164 11.53051005249614 L16.14996879020698 12.22864979593331 L16.14996879020698 12.22864979593331 z"/>
<path fill="#ffc0cb" stroke="#ffc0cb" d="M15.642183727528373 13.547081729756352 L15.642183727528373 13.547081729756352 L15.940206850061651 12.904858538273803 L15.940206850061651 12.904858538273803 z"/>
<path fill="#ffc0cb" stroke="#ffc0cb" d="M14.54505208118501 13.050000970472508 L14.54505208118501 13.050000970472508 L14.847089449718663 12.402279743399598 L14.847089449718663 12.402279743399598 z"/>
<path fill="#ffc0cb" stroke="#ffc0cb" d="M14.804112210218518 14.684521868623753 L14.804112210218518 14.684521868623753 L15.261221106694164 14.14385093565183 L15.261221106694164 14.14385093565183 z"/>
<path fill="#ffc0cb" stroke="#ffc0cb" d="M14.545051700154172 13.050001190460767 L14.545051700154172 13.050001190460767 L14.135130023236854 13.63543001627062 L14.135130023236854 13.63543001627062 z"/>
<path fill="#ffc0cb" stroke="#ffc0cb" d="M14.804111689728133 14.684521868245312 L14.804111689728133 14.684521868245312 L14.279019634399768 15.159439595774668 L14.279019634399768 15.159439595774668 z"/>
<path fill="#ffc0cb" stroke="#ffc0cb" d="M13.063412083461321 15.879444123030494 L13.063412083461321 15.879444123030494 L13.695318649039367 15.56012732653934 L13.695318649039367 15.56012732653934 z"/>
<path fill="#ffc0cb" stroke="#ffc0cb" d="M13.06341152859505 15.879444402155706 L13.06341152859505 15.879444402155706 L12.394579386311579 16.11168823265686 L12.394579386311579 16.11168823265686 z"/>
<path fill="#ffc0cb" stroke="#ffc0cb" d="M11.70631017263452 15.037710644280805 L11.70631017263452 15.037710644280805 L12.396630001004757 14.852740003749808 L12.396630001004757 14.852740003749808 z"/>
<path fill="#ffc0cb" stroke="#ffc0cb" d="M11.706310124091386 15.037711418371048 L11.706310124091386 15.037711418371048 L10.994349987680664 15.099999859189356 L10.994349987680664 15.099999859189356 z"/>
<path fill="#ffc0cb" stroke="#ffc0cb" d="M9.594110767276211 16.11168622512947 L9.594110767276211 16.11168622512947 L10.287929767254909 16.252711145066883 L10.287929767254909 16.252711145066883 z"/>
<path fill="#ffc0cb" stroke="#ffc0cb" d="M9.592069781716255 14.85274081464602 L9.592069781716255 14.85274081464602 L10.282389610086492 15.037711455177018 L10.282389610086492 15.037711455177018 z"/>
<path fill="#ffc0cb" stroke="#ffc0cb" d="M7.709672790686436 15.15943593467675 L7.709672790686436 15.15943593467675 L8.293380815747058 15.560128811663166 L8.293380815747058 15.560128811663166 z"/>
<path fill="#ffc0cb" stroke="#ffc0cb" d="M7.1845813503354155 14.684518507003721 L7.1845813503354155 14.684518507003721 L7.709673405663781 15.159436234533075 L7.709673405663781 15.159436234533075 z"/>
<path fill="#ffc0cb" stroke="#ffc0cb" d="M7.853568480852473 13.635431519147525 L7.853568480852473 13.635431519147525 L8.358918480852472 14.140781519147525 L8.358918480852472 14.140781519147525 z"/>
<path fill="#ffc0cb" stroke="#ffc0cb" d="M7.184581729884141 14.684518537473751 L7.184581729884141 14.684518537473751 L6.727477001761721 14.143852534853101 L6.727477001761721 14.143852534853101 z"/>
<path fill="#ffc0cb" stroke="#ffc0cb" d="M7.85356780028504 13.635431540256995 L7.85356780028504 13.635431540256995 L7.44364283346844 13.04999801598404 L7.44364283346844 13.04999801598404 z"/>
<path fill="#ffc0cb" stroke="#ffc0cb" d="M6.346511831744099 13.547079149980716 L6.346511831744099 13.547079149980716 L6.048490481071562 12.904859776759151 L6.048490481071562 12.904859776759151 z"/>
<path fill="#ffc0cb" stroke="#ffc0cb" d="M5.720966534931231 11.53051058448437 L5.720966534931231 11.53051058448437 L5.838728055943416 12.22865032792154 L5.838728055943416 12.22865032792154 z"/>
<path fill="#ffc0cb" stroke="#ffc0cb" d="M5.697308071801556 10.822900064466706 L5.697308071801556 10.822900064466706 L5.720966057409637 11.530510131815175 L5.720966057409637 11.530510131815175 z"/>
<path fill="#ffc0cb" stroke="#ffc0cb" d="M5.768176512087474 10.118449649112762 L5.768176512087474 10.118449649112762 L5.697308171502248 10.822899816051429 L5.697308171502248 10.822899816051429 z"/>
<path fill="#ffc0cb" stroke="#ffc0cb" d="M5.768177242192146 10.118449342781044 L5.768177242192146 10.118449342781044 L5.932305273529965 9.429738873625048 L5.932305273529965 9.429738873625048 z"/>
<path fill="#ffc0cb" stroke="#ffc0cb" d="M7.1416078860208385 9.597719014235327 L7.1416078860208385 9.597719014235327 L7.443643468492539 8.95000161738463 L7.443643468492539 8.95000161738463 z"/>
<path fill="#ffc0cb" stroke="#ffc0cb" d="M6.527020979161636 8.14816053659531 L6.527020979161636 8.14816053659531 L6.186765548293567 8.769047560397894 L6.186765548293567 8.769047560397894 z"/>
<path fill="#ffc0cb" stroke="#ffc0cb" d="M6.527021256946291 8.148160926124476 L6.527021256946291 8.148160926124476 L6.946992265285506 7.57817166907398 L6.946992265285506 7.57817166907398 z"/>
<path fill="#ffc0cb" stroke="#ffc0cb" d="M7.85356848085248 8.36456848085248 L7.85356848085248 8.36456848085248 L8.358918480852479 7.85921848085248 L8.358918480852479 7.85921848085248 z"/>
<path fill="#ffc0cb" stroke="#ffc0cb" d="M7.994829399509565 6.630459239589175 L7.994829399509565 6.630459239589175 L7.439191602118829 7.069242028789184 L7.439191602118829 7.069242028789184 z"/>
<path fill="#ffc0cb" stroke="#ffc0cb" d="M7.9948295643962775 6.630459264556729 L7.9948295643962775 6.630459264556729 L8.60399130718916 6.269652206967994 L8.60399130718916 6.269652206967994 z"/>
<path fill="#ffc0cb" stroke="#ffc0cb" d="M9.592069345755691 7.147258596968555 L9.592069345755691 7.147258596968555 L8.94434811868278 7.449295965502206 L8.94434811868278 7.449295965502206 z"/>
<path fill="#ffc0cb" stroke="#ffc0cb" d="M8.60399 6.26965 L7.99483 6.63046 L7.43919 7.06924 L6.94699 7.57817 L6.52702 8.14816 L6.18677 8.76905 L5.93231 9.42974 L5.76818 10.11845 L5.69731 10.8229 L5.72097 11.53051 L5.83873 12.22865 L6.04849 12.90486 L6.34651 13.54708 L6.72748 14.14385 L7.18458 14.68452 L7.70967 15.15944 L8.29338 15.56013 L8.92529 15.87944 L9.59411 16.11169 L10.28793 16.25271 L10.99435 16.3 L11.70077 16.25271 L12.39458 16.11169 L13.06341 15.87944 L13.69532 15.56013 L14.27902 15.15944 L14.80411 14.68452 L15.26122 14.14385 L15.64218 13.54708 L15.94021 12.90486 L16.14997 12.22865 L16.26773 11.53051 L16.29139 10.8229 L16.22052 10.11845 L16.05639 9.42974 L15.80193 8.76905 L15.46168 8.14816 L15.04171 7.57817 L14.54951 7.06924 L13.99387 6.63046 L13.3847 6.26965 L12.73288 5.99325 L12.05003 5.8062 L11.34835 5.71184 L10.64035 5.71184 L9.93866 5.8062 L9.25582 5.99325 M8.94435 7.4493 L9.59207 7.14726 L10.28239 6.96229 L10.92679 6.90591 L10.99435 6.9 L11.36477 6.93241 L11.70631 6.96229 L12.39663 7.14726 L13.04435 7.4493 L13.62978 7.85922 L14.13513 8.36457 L14.54505 8.95 L14.84709 9.59772 L15.03206 10.28804 L15.07885 10.8229 L15.09435 11 L15.06432 11.34322 L15.03206 11.71196 L14.84709 12.40228 L14.54505 13.05 L14.13513 13.63543 L13.62978 14.14078 L13.45247 14.26493 L13.04435 14.5507 L12.39663 14.85274 L11.70631 15.03771 L10.99435 15.1 L10.28239 15.03771 L9.59207 14.85274 L8.97438 14.56471 L8.94435 14.5507 L8.39964 14.16929 L8.35892 14.14078 L7.85357 13.63543 L7.44364 13.05 L7.14161 12.40228 L6.95664 11.71196 L6.89435 11 L6.90984 10.8229 L6.95664 10.28804 L7.06487 9.88413 L7.14161 9.59772 L7.44364 8.95 L7.75137 8.51053 L7.85357 8.36457 L8.35892 7.85922 z"/>
</svg>